<svg xmlns="http://www.w3.org/2000/svg" width="33" height="36.999" viewBox="0 0 33 36.999"><defs><style>.a,.b,.d{fill:none;}.a{stroke:#90def8;}.a,.b{stroke-width:4px;}.b{stroke:#000;}.c{stroke:none;}</style></defs><g transform="translate(0 2)"><path class="a" d="M8.5,31h-2V28.462A9.045,9.045,0,0,0,11.5,30C17.841,30,23,23.047,23,14.5S17.841-1,11.5-1A9.045,9.045,0,0,0,6.5.538V-2h2A16.5,16.5,0,0,1,20.167,26.167,16.452,16.452,0,0,1,8.5,31Z" transform="translate(6 2)"/><g class="b" transform="translate(0 31) rotate(-90)"><circle class="c" cx="14.5" cy="14.5" r="14.5"/><circle class="d" cx="14.5" cy="14.5" r="12.5"/></g><path d="M13.255,18.612H8.687c0-.049-.189-4.849-.435-4.992a5.811,5.811,0,0,0-.639-2.337A6.2,6.2,0,0,0,3.254,8.073a12.334,12.334,0,0,0-1.517-.105c-.682,0-1.531.085-1.7.49.011-.154.025-.365.041-.609A41.253,41.253,0,0,1,.538,3.183c.071-.265.109-.368.134-.368s.034.081.052.2a3.629,3.629,0,0,0,.066.361c.095.381.26.566.506.566l.041,0A22.913,22.913,0,0,1,5.725,3.7l.293-.005a5,5,0,1,0,9.647-.023c3.061.052,5.246.275,5.267.277s.761-.006.793-.538c0-.022,0-.034.005-.035.042.018.219,3.405.294,4.861a.417.417,0,0,0-.379-.175,1.033,1.033,0,0,0-.17.015,1.3,1.3,0,0,1-.2.011c-.123,0-.28-.007-.461-.016l-.091,0c-.231-.011-.483-.021-.762-.021-3.514,0-5.565,1.876-6.1,5.576l-.614,4.991Zm8.8-9.746h0c0-.04-.014-.277-.032-.633A.908.908,0,0,1,22.058,8.866Z" transform="translate(3.155 11)"/><circle cx="4" cy="4" r="4" transform="translate(10 20) rotate(-90)"/></g></svg>