<svg xmlns="http://www.w3.org/2000/svg" width="155" height="35" viewBox="0 0 155 35"><path d="M40-715.708a31.626,31.626,0,0,1,2.825-11.473,21.738,21.738,0,0,1,6.49-8.328l-3.191-7.454a1.631,1.631,0,0,1-.129-1.106,1.359,1.359,0,0,1,.561-.874.71.71,0,0,1,.776-.117,1.351,1.351,0,0,1,.69.7l3.191,7.454a15.553,15.553,0,0,1,7.762-2.1,15.554,15.554,0,0,1,7.762,2.1l3.191-7.454a1.351,1.351,0,0,1,.69-.7.71.71,0,0,1,.776.117,1.359,1.359,0,0,1,.561.874,1.631,1.631,0,0,1-.129,1.106l-3.191,7.454a21.738,21.738,0,0,1,6.49,8.328,31.626,31.626,0,0,1,2.825,11.473Zm10.35-6.406a1.853,1.853,0,0,0,1.531-.844,3.377,3.377,0,0,0,.625-2.067,3.377,3.377,0,0,0-.625-2.067,1.853,1.853,0,0,0-1.531-.844,1.853,1.853,0,0,0-1.531.844,3.377,3.377,0,0,0-.625,2.067,3.377,3.377,0,0,0,.625,2.067A1.853,1.853,0,0,0,50.35-722.115Zm17.25,0a1.853,1.853,0,0,0,1.531-.844,3.377,3.377,0,0,0,.625-2.067,3.377,3.377,0,0,0-.625-2.067,1.853,1.853,0,0,0-1.531-.844,1.853,1.853,0,0,0-1.531.844,3.377,3.377,0,0,0-.625,2.067,3.377,3.377,0,0,0,.625,2.067A1.853,1.853,0,0,0,67.6-722.115Z" transform="translate(-40 746.925)" fill="#fff"/><text transform="translate(121 11)" fill="#b9b9b9" font-size="12" font-family="Roboto-Bold, Roboto" font-weight="700"><tspan x="-73.529" y="0">Download the</tspan></text><text transform="translate(155 31)" fill="#fff" font-size="19" font-family="ArialMT, Arial"><tspan x="-107.738" y="0">Android APK</tspan></text></svg>