<svg xmlns="http://www.w3.org/2000/svg" width="278" height="290.793" viewBox="0 0 278 290.793">
  <g id="ic_launcher_foreground" transform="translate(-0.042)">
    <path id="path_0" d="M167.882,0c16.729.582,47.278.873,72.153,21.675,29.094,25.894,39.568,66.916,37.822,113.757,0,.436-.291,6.255-.291,6.255s-.436,5.237-.582,5.528c0,0-.727,5.964-.727,6.837-1.164,6.983-2.182,14.838-3.782,21.239-25.894,109.1-90.337,114.484-129.759,115.5-.145,0-5.382-.291-7.855-.582-43.786-5.237-122.34-58.479-134.123-143a116.733,116.733,0,0,1-.582-17.456C1.756,106.484,5.684,94.7,13.1,79.426A123.321,123.321,0,0,1,25.322,59.788C41.469,37.095,73.181,14.838,99.948,8c-.145,0,5.528-1.746,5.528-1.746s6.4-1.746,7.128-1.891c1.018-.145,6.11-1.164,8.437-1.455l7.273-1.018,6.692-.873,3.928-.436L143.3.291,157.845,0Z" transform="translate(0)" fill="#fff"/>
    <path id="path_1" d="M165.037,81.98s14.692,17.747,13.383,27.93-27.93,12.074-27.93,12.074" transform="translate(68.408 37.276)" fill="none" stroke="#90def8" stroke-linecap="round" stroke-width="10"/>
    <path id="path_2" d="M140.883,93.28s17.6,44.95-24.293,47.423" transform="translate(52.994 42.414)" fill="none" stroke="#90def8" stroke-linecap="round" stroke-width="10"/>
    <path id="path_3" d="M177.862,134.08s24.293,30.4-16.438,26.039a17.363,17.363,0,0,1-6.837-3.2c-5.819-4.219-13.674-12.51-11.347-14.692,2.182-2.037,6.4,7.564,5.528,14.692-.582,4.655-4.364,8.292-12.8,3.2l-4.8-4.364s-4.51-16-4.364-11.056c0,2.182,5.528,9.31,4.364,11.056-.727,1.309-3.2,6.837-6.546,8-3.491,1.309-8.146-1.746-10.183-1.455,0,0-10.183-19.347-6.837-14.983l6.837,14.983c-.436,3.491-5.237,13.092-30.694,16.874-5.673.873-23.13,0-23.13,0a52.219,52.219,0,0,1-16-5.964c-4.51-2.909-7.419-13.092-7.419-13.092s-.582-6.983,7.419-12.8c11.638-7.564,29.239-5.237,29.239-5.237" transform="translate(16.888 60.965)" fill="none" stroke="#90def8" stroke-linecap="round" stroke-width="10"/>
    <path id="path_4" d="M135.49,163.78m-5,0a5,5,0,1,1,5,5,5,5,0,0,1-5-5" transform="translate(59.314 72.196)" fill="#90def8"/>
    <path id="path_5" d="M176.237,6.843a34.982,34.982,0,0,0-22.839,3.2,395.019,395.019,0,0,0-48.441,35.931s-7.128-11.492-12.219-9.892,0,5.528,0,5.528l6.692,7.273L12.148,112.745s-11.2,8.146-4.8,24.73L19.712,157.4l15.42,20.22s13.674,17.456,29.967,7.564,88.154-60.661,88.154-60.661,3.346,11.347,6.255,11.492,8-2.618-1.455-14.838l49.169-34.331s18.329-12.8,8.583-37.822a155.792,155.792,0,0,0-11.056-17.6,132.18,132.18,0,0,0-14.4-16.729,40.843,40.843,0,0,0-6.4-4.8A38.324,38.324,0,0,0,176.237,6.843Z" transform="translate(2.424 2.772)" fill="#90def8" stroke="#000" stroke-width="1"/>
    <path id="path_6" d="M131.688,8.41s-43.2,29.094-43.5,34.476c0,2.037-5.237,10.474,37.677,51.787,0,0,1.455,6.546,5.673,4.219,12.51-6.692,41.313-22.839,40.877-25.166-.582-2.909,4.51-22.4,4.51-22.4l-21.079-33.6Z" transform="translate(39.99 3.824)" fill="#afe7f9"/>
    <path id="path_7" d="M20.463,85.451c-2.328,1.746-2.764-.436-4.364,0a4.974,4.974,0,0,0-3.491,3.491c0,1.164-8.146,1.309-3.055,11.928,4.655,9.892,22.548,30.258,26.766,36.513C47.23,153.53,52.03,149.457,52.03,149.457s7.128-13.965,11.347-16.293c-8.548-8.194-30.84-47.859-30.84-47.859H27.155C27.3,85.451,21.009,85.388,20.463,85.451Z" transform="translate(3.564 36.176)" fill="#a3e4f9"/>
    <path id="path_8" d="M39.33,81.6A45.9,45.9,0,0,1,47.185,88L65.66,115.062c.727,2.764,3.928,5.528,3.782,8.874,3.637-3.2,5.382-6.255,8.437-8.874l23.857-16.729c4.219-2.473,8.874-4.655,10.037-5.237-3.055-1.746-6.4-5.528-9.165-8L88.353,64.148C86.026,58.038,83.7,52.51,83.7,52.51A99.586,99.586,0,0,1,73.224,64.148L53,77.531C50.386,78.4,43.985,81.167,39.33,81.6Z" transform="translate(17.864 23.876)" fill="#9be0f6"/>
    <path id="path_9" d="M94.03,30.55c-2.328,1.018-16,18.038-16,18.038S75.7,52.661,83.7,58.334s26.039,34.04,25.894,37.531,5.673,4.073,5.673,4.073l22.693-10.765s1.746-6.692-3.928-18.329c0,0-20.22-34.767-33.6-40.15C100.431,30.55,96.212,29.532,94.03,30.55Z" transform="translate(35.317 13.687)"/>
    <path id="shade" d="M101.8,81.119c4.408,6.858,7.864,13.21,7.8,14.747-.145,3.491,5.673,4.073,5.673,4.073l22.693-10.765s1.746-6.692-3.928-18.329c0,0-4.1-6.741-8.466-13.307C124.445,64.759,106.433,78.48,101.8,81.119Z" transform="translate(35.317 13.687)" fill="#383838"/>
    <path id="path_10" d="M89.38,36.362c-1.309,1.309-14.692,16.584-14.692,16.584L51.427,70.4l-3.8-5.964L88.507,34.617C88.521,34.471,90.558,35.053,89.38,36.362Z" transform="translate(21.638 15.73)" fill="#383838"/>
    <path id="path_11" d="M57.05,62.6,52.977,57.51,23.738,79.039s-.436,2.328,2.328,1.455,16-6.255,16-6.255Z" transform="translate(10.763 26.149)" fill="#383838"/>
    <path id="path_12" d="M29.465,80.41,16.373,83.465s-1.746,4.364,0,5.528a173.721,173.721,0,0,0,38.84,53.533s2.618,1.455,4.219,0,6.11-10.328,6.11-10.328.727-1.6-2.182-4.655c-.873-1.018-6.255-6.692-8.146-9.019-2.618-3.2-5.528-7.273-8.728-11.783-2.909-3.928-5.091-8.292-7.855-12.074a75.427,75.427,0,0,1-4.51-7.273c-.727-1.746-1.6-3.491-2.473-5.237C29.9,79.974,29.61,80.846,29.465,80.41Z" transform="translate(7.073 36.562)"/>
    <path id="shade2" d="M40.37,126.779a158.288,158.288,0,0,0,14.843,15.746s2.618,1.455,4.219,0,6.11-10.328,6.11-10.328.727-1.6-2.182-4.655c-.873-1.018-8.146-9.019-8.146-9.019L53.845,116.8l-1.381-1.828C50,117.761,44.2,124.136,40.37,126.779Z" transform="translate(7.073 36.562)" fill="#383838"/>
    <path id="path_13" d="M87.225,105.856l-4.073-4.946-16,11.928L56.967,124.621s-1.891,3.2,2.473,1.455Z" transform="translate(25.699 45.883)" fill="#383838"/>
    <path id="path_14" d="M121.489,81.634c-3.2.582-23.566,10.474-23.566,10.474L78.43,105.782l4.364,5.528,39.859-27.348S124.558,81.052,121.489,81.634Z" transform="translate(35.643 37.084)" fill="#383838"/>
    <path id="path_15" d="M12.54,85.41a2.547,2.547,0,0,1,2.182,1.455,10.7,10.7,0,0,1-2.182,9.019,2.065,2.065,0,0,1-1.309,1.164l-1.309.582a1.868,1.868,0,0,1-1.455-.582A4.4,4.4,0,0,1,7.74,94.72c0-2.182-.582-5.673,3.346-8.437Z" transform="translate(3.486 38.835)" fill="#b85c1f"/>
    <path id="path_16" d="M44.933,126.528a7.023,7.023,0,0,0-5.091-2.618,33.139,33.139,0,0,0-7.564,1.455s-2.328,3.055,1.164,4.219a20.7,20.7,0,0,0,10.328,0C44.933,129.147,44.933,126.528,44.933,126.528Z" transform="translate(14.312 56.341)" fill="#b85c1f"/>
    <path id="path_17" d="M116.03,10.483l9.165-4.073A37.943,37.943,0,0,1,138.432,13.1c7.128,5.964,19.929,23.13,21.239,26.039,2.182,3.346,4.073,6.837,5.964,10.474a37.045,37.045,0,0,1,2.328,19.056l-6.692,5.819s-.145-21.239,0-22.257-9.456-20.8-24.584-34.331C136.556,17.9,124.191,10.774,116.03,10.483Z" transform="translate(52.739 2.915)" fill="#383838"/>
    <path id="path_18" d="M139.425,16.848s-2.764,2.764-4.946,2.618-4.219-5.528-22.839-5.673c0,0,5.528-5.237,12.074-5.382S139.425,16.848,139.425,16.848Z" transform="translate(50.743 3.823)" fill="#fff"/>
    <path id="path_19" d="M149.194,37.41l-4.073,2.909s.145,22.839-1.891,24.584c0,0,6.4-3.055,8.146-9.165S149.194,37.41,149.194,37.41Z" transform="translate(65.107 17.01)" fill="#fff"/>
    <path id="path_20" d="M89.833,92.365A2.944,2.944,0,0,1,88.8,95.259s-4.931,3.859-7.075,5.36c-1.715,1.286-2.876-1.161-3-1.286-1.5-2.144-14.579-21.011-16.08-23.155A3.422,3.422,0,0,1,62,74.462v-.429c0-.214.214-.429.214-.643a2.96,2.96,0,0,1,.643-.858l3-2.144,4.074-3.216c.858-.643,2.447-.243,2.662.4C72.595,67.573,89.657,91.89,89.833,92.365Z" transform="translate(24.205 25.397)" fill="#90def8" stroke="#000" stroke-width="0.5"/>
    <path id="path_21" d="M70.1,75.393l1.5-8.2h0a2.43,2.43,0,0,0-1.8.454L62.859,72.84a1.682,1.682,0,0,0-.584,1.695h0Z" transform="translate(24.249 25.489)" fill="#9be0f6"/>
    <path id="path_22" d="M71.941,78.8l-1.626,7.8.6.3s.442.164,1.3-.479l6.925-5.23a1.951,1.951,0,0,0,.8-1.575v-.6Z" transform="translate(33.774 39.068)" fill="#9be0f6"/>
    <path id="path_23" d="M70.941,77.17l.617,1.029-.412.206L69.5,75.935l.412-.206.617,1.029L73.2,74.7l.206.412Z" transform="translate(33.395 35.036)"/>
    <path id="path_24" d="M71.676,75.781l1.235-.412.206.412-3.7,1.029L69,76.193,71.264,72.9l.206.412-.412,1.235Zm-1.029-.823-.617,1.029c-.206.206-.206.412-.412.617h0c.206,0,.412-.206.617-.206l1.029-.412Z" transform="translate(32.866 33.131)"/>
    <path id="path_25" d="M71.093,72.112l-.412.823c-.206.412-.206.617-.412.823h1.647l.412.412-2.058.206-.823,2.058-.412-.412.412-1.029a.756.756,0,0,0,.206-.617H68.212l-.412-.412h2.058l.823-2.264Z" transform="translate(31.596 31.861)"/>
    <path id="path_26" d="M67.5,73.464,70.381,71.2l.206.412-2.881,2.264Z" transform="translate(31.279 31.332)"/>
    <path id="Path_601" data-name="Path 601" d="M103.048,116.435s-.883.7-1.2.621-.959-.96-.959-.96a.815.815,0,0,1,0-.58l-.557-.265-.961-1.22v-.506s-.854-.505-.7-1.1a1.083,1.083,0,0,1-.718-1.137l.419-.49-.419-.629s-.453.857-1.182.582c.151.212-1.333-.582-1.087-1.732l.262-.49.61-.49.214.49s-.476.052-.476.49.576,1.393.943,1.15.382-.731,1.134-.33a1.148,1.148,0,0,1,.508,1.291s-.893.964.33.561l.28.416s-.579,1.032.453.7l.385.505-.385.333.77,1.2s1.168.665.644-1.815l.487-.367,2.376,1.134-.54.351-1.711-.841s.367,1.344-.437,1.938c0,0-.385,1.242.715,1.032l.472-.314Z" transform="translate(-2.356 -0.963)"/>
    <path id="Path_602" data-name="Path 602" d="M.456.194,0,0" transform="translate(101.476 114.395) rotate(31)" fill="none" stroke="#000" stroke-width="0.3"/>
    <path id="Path_603" data-name="Path 603" d="M.456.194,0,0" transform="translate(100.991 113.793) rotate(31)" fill="none" stroke="#000" stroke-width="0.3"/>
  </g>
</svg>
